<svg width="30" height="30" fill="none" xmlns="http://www.w3.org/2000/svg"><path fill-rule="evenodd" clip-rule="evenodd" d="M15 5c-2.716 0-3.056.013-4.123.06-1.064.05-1.79.218-2.427.465a4.884 4.884 0 0 0-1.771 1.154A4.858 4.858 0 0 0 5.525 8.45c-.247.638-.416 1.363-.465 2.428C5.01 11.944 5 12.284 5 15s.013 3.056.06 4.122c.05 1.066.218 1.792.465 2.428a4.884 4.884 0 0 0 1.154 1.771c.555.556 1.112.9 1.771 1.154.638.247 1.363.416 2.428.465 1.066.05 1.406.06 4.122.06s3.056-.012 4.122-.06c1.066-.05 1.792-.218 2.428-.465a4.884 4.884 0 0 0 1.771-1.154c.556-.555.9-1.112 1.154-1.771.247-.637.416-1.363.465-2.428.05-1.066.06-1.406.06-4.122s-.012-3.056-.06-4.123c-.05-1.065-.218-1.79-.465-2.427a4.885 4.885 0 0 0-1.154-1.771 4.858 4.858 0 0 0-1.771-1.154c-.637-.248-1.363-.416-2.428-.465C18.056 5.01 17.716 5 15 5Zm0 1.8c2.67 0 2.988.013 4.041.06.975.045 1.504.207 1.857.345.467.181.8.397 1.15.747.35.35.566.683.747 1.15.137.353.3.882.345 1.857.047 1.055.059 1.371.059 4.041 0 2.67-.013 2.988-.063 4.041-.05.975-.212 1.504-.35 1.857-.187.467-.4.8-.75 1.15a3.13 3.13 0 0 1-1.15.747c-.35.137-.887.3-1.862.345-1.063.047-1.375.059-4.05.059s-2.988-.013-4.05-.063c-.975-.05-1.513-.212-1.863-.35-.475-.187-.8-.4-1.15-.75a3.06 3.06 0 0 1-.75-1.15c-.137-.35-.3-.887-.35-1.862-.037-1.05-.05-1.375-.05-4.038 0-2.662.013-2.987.05-4.05.05-.975.213-1.512.35-1.862.175-.475.4-.8.75-1.15.35-.35.675-.575 1.15-.75.35-.138.875-.3 1.85-.35 1.063-.038 1.375-.05 4.05-.05L15 6.8Zm0 3.065a5.135 5.135 0 1 0 0 10.27 5.135 5.135 0 0 0 0-10.27Zm0 8.469a3.334 3.334 0 1 1 0-6.668 3.334 3.334 0 0 1 0 6.668Zm6.538-8.671a1.2 1.2 0 1 1-2.401-.001 1.2 1.2 0 0 1 2.4 0Z" fill="#000"/></svg>