<svg width="30" height="30" fill="none" xmlns="http://www.w3.org/2000/svg"><path fill-rule="evenodd" clip-rule="evenodd" d="M5 13.776c0-1.617.2-3.237.2-3.237s.195-1.375.795-1.984c.76-.796 1.76-.771 2.205-.855 1.6-.155 6.8-.2 6.8-.2s4.203.005 7 .207c.392.048 1.245.05 2.005.848.6.607.795 1.985.795 1.985s.2 1.618.2 3.238v1.572c0 1.62-.2 3.237-.2 3.237s-.195 1.378-.795 1.986c-.76.797-1.613.8-2.005.847-2.797.202-7 .207-7 .207s-5.2-.046-6.8-.2c-.445-.083-1.445-.058-2.205-.854-.6-.61-.795-1.984-.795-1.984S5 16.97 5 15.35v-1.575Zm7.935 3.413V11.57l5.404 2.819-5.4 2.8h-.004Z" fill="#000"/></svg>