<svg width="50" height="50" fill="none" xmlns="http://www.w3.org/2000/svg"><circle cx="25" cy="25" r="25" fill="url(#a)"/><path fill-rule="evenodd" clip-rule="evenodd" d="M19.167 8.333a3.333 3.333 0 0 0-3.334 3.334v26.666a3.333 3.333 0 0 0 3.334 3.334h11.666a3.333 3.333 0 0 0 3.334-3.334V11.667a3.333 3.333 0 0 0-3.334-3.334h-1.666v.834c0 .92-.747 1.666-1.667 1.666h-5c-.92 0-1.667-.746-1.667-1.666v-.834h-1.666Zm2.5 30a.833.833 0 1 0 0 1.667h6.666a.833.833 0 1 0 0-1.667h-6.666Zm7.5-17.5a.833.833 0 0 1 0 1.179l-5.244 5.244a.833.833 0 0 1-1.179 0l-1.91-1.91a.833.833 0 0 1 1.178-1.18l1.321 1.322 4.655-4.655a.833.833 0 0 1 1.179 0Z" fill="#fff"/><defs><linearGradient id="a" x1="25" y1="0" x2="25" y2="50" gradientUnits="userSpaceOnUse"><stop stop-color="#BB46D8"/><stop offset="1" stop-color="#FFCFE0"/></linearGradient></defs></svg>