<svg width="30" height="30" fill="none" xmlns="http://www.w3.org/2000/svg"><path d="m5.054 13.901 12.657-5.214c1.25-.544 5.487-2.282 5.487-2.282s1.955-.76 1.792 1.086c-.054.76-.488 3.423-.923 6.302l-1.358 8.528s-.109 1.25-1.034 1.467c-.925.217-2.444-.76-2.716-.978-.217-.163-4.074-2.608-5.486-3.803-.38-.325-.815-.978.054-1.738a207.183 207.183 0 0 0 5.704-5.432c.652-.652 1.303-2.173-1.413-.326l-7.66 5.16s-.868.544-2.498.055c-1.63-.489-3.53-1.14-3.53-1.14s-1.305-.815.923-1.684h.001Z" fill="#000"/></svg>