<svg width="50" height="50" fill="none" xmlns="http://www.w3.org/2000/svg"><circle cx="25" cy="25" r="25" fill="url(#a)"/><path d="M19.167 16.667a5.833 5.833 0 1 1 11.666 0V25a5.833 5.833 0 1 1-11.666 0v-8.333Z" fill="#fff"/><path d="M35 25a.833.833 0 1 0-1.667 0 8.333 8.333 0 0 1-16.666 0A.833.833 0 1 0 15 25c0 5.242 4.034 9.542 9.167 9.966v4.2a.833.833 0 1 0 1.666 0v-4.2C30.966 34.542 35 30.242 35 25Z" fill="#fff"/><defs><linearGradient id="a" x1="25" y1="0" x2="25" y2="50" gradientUnits="userSpaceOnUse"><stop stop-color="#006CEB"/><stop offset="1" stop-color="#00EBFA"/></linearGradient></defs></svg>