<svg width="50" height="50" fill="none" xmlns="http://www.w3.org/2000/svg"><circle cx="25" cy="25" r="25" fill="url(#a)"/><path d="M25.842 18.633a5.3 5.3 0 1 1-10.6 0 5.3 5.3 0 0 1 10.6 0Zm9.54 3.18a4.24 4.24 0 1 1-8.48 0 4.24 4.24 0 0 1 8.48 0Zm3.654 11.727c-.843-2.42-2.894-5.367-7.894-5.367-1.27 0-2.349.19-3.267.513l-.126.046a7.525 7.525 0 0 0-.704.303c-.003 0-.005.002-.007.003-.529.261-.994.57-1.402.911-1.243 1.04-1.966 2.381-2.388 3.591a2.187 2.187 0 0 0-.086 1.182c.079.371.257.71.508.997a2.66 2.66 0 0 0 .844.634 3.015 3.015 0 0 0 1.328.3h10.6c1.756 0 3.17-1.454 2.594-3.113Z" fill="#fff"/><path d="M24.616 28.73a8.622 8.622 0 0 1 1.824-1.169c-1.463-.91-3.382-1.508-5.898-1.508-5.423 0-8.071 2.774-9.365 5.484-1.26 2.642 1.138 5.116 4.065 5.116h7.136a3.727 3.727 0 0 1-.631-3.635c.483-1.388 1.34-3.01 2.87-4.288Z" fill="#fff"/><defs><linearGradient id="a" x1="25" y1="0" x2="25" y2="50" gradientUnits="userSpaceOnUse"><stop stop-color="#19923B"/><stop offset="1" stop-color="#CDEF43"/></linearGradient></defs></svg>