<svg width="50" height="50" fill="none" xmlns="http://www.w3.org/2000/svg"><circle cx="25" cy="25" r="25" fill="url(#a)"/><path fill-rule="evenodd" clip-rule="evenodd" d="M14.44 12.199c-.272.535-.272 1.235-.272 2.635v20.333c0 1.4 0 2.1.273 2.635.24.47.622.853 1.092 1.093.535.272 1.235.272 2.635.272h13.667c1.4 0 2.1 0 2.635-.272.47-.24.852-.622 1.092-1.093.273-.535.273-1.234.273-2.635V14.834c0-1.4 0-2.1-.273-2.635a2.5 2.5 0 0 0-1.092-1.092c-.535-.273-1.235-.273-2.635-.273H18.168c-1.4 0-2.1 0-2.635.273a2.5 2.5 0 0 0-1.092 1.092Zm4.728 5.302a.833.833 0 1 0 0 1.666h11.667a.833.833 0 1 0 0-1.666H19.168Zm-.833 4.166c0-.46.373-.833.833-.833h11.667a.833.833 0 1 1 0 1.667H19.168a.833.833 0 0 1-.833-.834Zm.833 2.5a.833.833 0 1 0 0 1.667h8.333a.833.833 0 0 0 0-1.667h-8.333Z" fill="#fff"/><defs><linearGradient id="a" x1="25" y1="0" x2="25" y2="50" gradientUnits="userSpaceOnUse"><stop stop-color="#FF5F2D"/><stop offset="1" stop-color="#FFE248"/></linearGradient></defs></svg>