<svg width="50" height="50" fill="none" xmlns="http://www.w3.org/2000/svg"><circle cx="25" cy="25" r="25" fill="url(#a)"/><path d="M31.667 14.167c-.92 0-1.667.746-1.667 1.666v17.5c0 .92.746 1.667 1.667 1.667H35c.92 0 1.667-.746 1.667-1.667v-17.5c0-.92-.747-1.666-1.667-1.666h-3.333Zm-10.834 10c0-.92.747-1.667 1.667-1.667h3.333c.92 0 1.667.746 1.667 1.667v9.166c0 .92-.746 1.667-1.667 1.667H22.5c-.92 0-1.667-.746-1.667-1.667v-9.166Zm-9.166 4.166c0-.92.746-1.666 1.666-1.666h3.334c.92 0 1.666.746 1.666 1.666v5c0 .92-.746 1.667-1.666 1.667h-3.334c-.92 0-1.666-.746-1.666-1.667v-5Z" fill="#fff"/><defs><linearGradient id="a" x1="25" y1="0" x2="25" y2="50" gradientUnits="userSpaceOnUse"><stop stop-color="#FF2E92"/><stop offset="1" stop-color="#F1DA5E"/></linearGradient></defs></svg>