<svg width="30" height="30" viewBox="0 0 30 30" fill="none" xmlns="http://www.w3.org/2000/svg">
<path d="M5.05397 13.9014L17.7111 8.68653C18.9605 8.14334 23.1977 6.40509 23.1977 6.40509C23.1977 6.40509 25.1534 5.64466 24.9903 7.49146C24.936 8.25189 24.5017 10.9138 24.0669 13.7926L22.7089 22.321C22.7089 22.321 22.6002 23.5704 21.6752 23.7876C20.7501 24.0049 19.2307 23.0272 18.9592 22.8098C18.742 22.6469 14.885 20.2024 13.4726 19.0074C13.0923 18.6816 12.6578 18.0295 13.5269 17.2691C15.4826 15.4765 17.8185 13.2492 19.2307 11.8369C19.8826 11.1851 20.5344 9.66404 17.8184 11.5112L10.1589 16.6717C10.1589 16.6717 9.28965 17.2149 7.6601 16.7261C6.03054 16.2372 4.12923 15.5854 4.12923 15.5854C4.12923 15.5854 2.82546 14.7706 5.05271 13.9016L5.05397 13.9014Z" fill="black"/>
</svg>
