<svg width="30" height="30" viewBox="0 0 30 30" fill="none" xmlns="http://www.w3.org/2000/svg">
<path fill-rule="evenodd" clip-rule="evenodd" d="M5.00002 13.7762C5.00002 12.1588 5.20002 10.5388 5.20002 10.5388C5.20002 10.5388 5.39502 9.16375 5.99502 8.555C6.75502 7.75875 7.75502 7.78375 8.20002 7.7C9.80001 7.545 15 7.5 15 7.5C15 7.5 19.2025 7.505 22 7.7075C22.3925 7.755 23.245 7.7575 24.005 8.555C24.605 9.1625 24.8 10.54 24.8 10.54C24.8 10.54 25 12.1575 25 13.7775V15.35C25 16.97 24.8 18.5875 24.8 18.5875C24.8 18.5875 24.605 19.965 24.005 20.5725C23.245 21.37 22.3925 21.3725 22 21.42C19.2025 21.6225 15 21.6275 15 21.6275C15 21.6275 9.80001 21.5812 8.20002 21.4275C7.75502 21.3437 6.75502 21.3687 5.99502 20.5725C5.39502 19.9637 5.20002 18.5887 5.20002 18.5887C5.20002 18.5887 5.00002 16.97 5.00002 15.3512V13.7762ZM12.935 17.1888V11.57L18.3388 14.3888L12.9388 17.1888H12.935Z" fill="black"/>
</svg>
