<svg width="30" height="30" viewBox="0 0 30 30" fill="none" xmlns="http://www.w3.org/2000/svg">
<path fill-rule="evenodd" clip-rule="evenodd" d="M15 5C12.2838 5 11.9438 5.0125 10.8775 5.06C9.81252 5.11 9.08752 5.2775 8.45002 5.525C7.79252 5.78 7.23377 6.1225 6.67877 6.67875C6.12252 7.23375 5.77877 7.79125 5.52502 8.45C5.27752 9.0875 5.10877 9.8125 5.06002 10.8775C5.01002 11.9437 5.00002 12.2837 5.00002 15C5.00002 17.7162 5.01252 18.0562 5.06002 19.1225C5.11002 20.1875 5.27752 20.9137 5.52502 21.55C5.78002 22.2075 6.12252 22.7662 6.67877 23.3212C7.23377 23.8775 7.79127 24.2212 8.45002 24.475C9.08752 24.7225 9.81252 24.8912 10.8775 24.94C11.9438 24.99 12.2838 25 15 25C17.7163 25 18.0563 24.9875 19.1225 24.94C20.1875 24.89 20.9138 24.7225 21.55 24.475C22.2075 24.22 22.7663 23.8775 23.3213 23.3212C23.8775 22.7662 24.2213 22.2087 24.475 21.55C24.7225 20.9125 24.8913 20.1875 24.94 19.1225C24.99 18.0562 25 17.7162 25 15C25 12.2837 24.9875 11.9437 24.94 10.8775C24.89 9.8125 24.7225 9.08625 24.475 8.45C24.22 7.7925 23.8775 7.23375 23.3213 6.67875C22.7663 6.1225 22.2088 5.77875 21.55 5.525C20.9125 5.2775 20.1875 5.10875 19.1225 5.06C18.0563 5.01 17.7163 5 15 5ZM15 6.8C17.67 6.8 17.9875 6.8125 19.0413 6.86C20.0163 6.905 20.545 7.0675 20.8975 7.205C21.365 7.38625 21.6975 7.6025 22.0475 7.9525C22.3975 8.3025 22.6138 8.635 22.795 9.1025C22.9325 9.455 23.095 9.98375 23.14 10.9587C23.1875 12.0137 23.1988 12.33 23.1988 15C23.1988 17.67 23.1863 17.9875 23.1363 19.0412C23.0863 20.0162 22.9238 20.545 22.7863 20.8975C22.5988 21.365 22.3863 21.6975 22.0363 22.0475C21.6863 22.3975 21.3488 22.6137 20.8863 22.795C20.5363 22.9325 19.9988 23.095 19.0238 23.14C17.9613 23.1875 17.6488 23.1987 14.9738 23.1987C12.2988 23.1987 11.9863 23.1862 10.9238 23.1362C9.94877 23.0862 9.41127 22.9237 9.06127 22.7862C8.58627 22.5987 8.26127 22.3862 7.91127 22.0362C7.56127 21.6862 7.33627 21.3487 7.16127 20.8862C7.02377 20.5362 6.86127 19.9987 6.81127 19.0237C6.77377 17.9737 6.76127 17.6487 6.76127 14.9862C6.76127 12.3237 6.77377 11.9987 6.81127 10.9362C6.86127 9.96125 7.02377 9.42375 7.16127 9.07375C7.33627 8.59875 7.56127 8.27375 7.91127 7.92375C8.26127 7.57375 8.58627 7.34875 9.06127 7.17375C9.41127 7.03625 9.93627 6.87375 10.9113 6.82375C11.9738 6.78625 12.2863 6.77375 14.9613 6.77375L15 6.8ZM15 9.865C12.1625 9.865 9.86502 12.165 9.86502 15C9.86502 17.8375 12.165 20.135 15 20.135C17.8375 20.135 20.135 17.835 20.135 15C20.135 12.1625 17.835 9.865 15 9.865ZM15 18.3337C13.1588 18.3337 11.6663 16.8412 11.6663 15C11.6663 13.1587 13.1588 11.6662 15 11.6662C16.8413 11.6662 18.3338 13.1587 18.3338 15C18.3338 16.8412 16.8413 18.3337 15 18.3337ZM21.5375 9.6625C21.5375 10.325 21 10.8625 20.3375 10.8625C19.675 10.8625 19.1375 10.325 19.1375 9.6625C19.1375 9 19.675 8.4625 20.3375 8.4625C21 8.4625 21.5375 9 21.5375 9.6625Z" fill="black"/>
</svg>
