<svg width="20" height="20" viewBox="0 0 20 20" fill="none" xmlns="http://www.w3.org/2000/svg">
<path fill-rule="evenodd" clip-rule="evenodd" d="M4.18182 4C2.97683 4 2 4.97683 2 6.18182V14.1818C2 15.3868 2.97683 16.3636 4.18182 16.3636H15.8182C17.0232 16.3636 18 15.3868 18 14.1818V6.18182C18 4.97683 17.0232 4 15.8182 4H4.18182ZM3.81824 6.18182C3.67729 6.44806 3.77886 6.77815 4.0451 6.9191L9.65978 9.89157C9.87264 10.0043 10.1275 10.0043 10.3403 9.89157L15.955 6.9191C16.2213 6.77815 16.3228 6.44806 16.1819 6.18182C16.0409 5.91558 15.7108 5.81401 15.4446 5.95496L10.0001 8.83737L4.55552 5.95496C4.28928 5.81401 3.95919 5.91558 3.81824 6.18182Z" fill="black"/>
</svg>
