<svg width="20" height="20" viewBox="0 0 20 20" fill="none" xmlns="http://www.w3.org/2000/svg">
<path fill-rule="evenodd" clip-rule="evenodd" d="M13.0662 13.7519C14.5638 12.1439 16 10.6019 16 8.35859C16 5.12298 13.3137 2.5 10 2.5C6.68629 2.5 4 5.12298 4 8.35859C4 10.6019 5.43622 12.1439 6.93383 13.7519C7.79886 14.6807 8.68438 15.6315 9.32544 16.7521C9.57349 17.1857 10.4265 17.1857 10.6746 16.7521C11.3156 15.6315 12.2011 14.6807 13.0662 13.7519ZM10.0003 10.6812C11.2053 10.6812 12.1821 9.70441 12.1821 8.49943C12.1821 7.29444 11.2053 6.31761 10.0003 6.31761C8.79534 6.31761 7.81851 7.29444 7.81851 8.49943C7.81851 9.70441 8.79534 10.6812 10.0003 10.6812Z" fill="black"/>
</svg>
