<svg width="50" height="50" viewBox="0 0 50 50" fill="none" xmlns="http://www.w3.org/2000/svg">
<circle cx="25" cy="25" r="25" fill="url(#paint0_linear_2805_1274)"/>
<path d="M19.1667 16.6668C19.1667 13.4452 21.7783 10.8335 25 10.8335C28.2217 10.8335 30.8333 13.4452 30.8333 16.6668V25.0002C30.8333 28.2218 28.2217 30.8335 25 30.8335C21.7783 30.8335 19.1667 28.2218 19.1667 25.0002V16.6668Z" fill="white"/>
<path d="M35 25.0002C35 24.5399 34.6269 24.1668 34.1667 24.1668C33.7064 24.1668 33.3333 24.5399 33.3333 25.0002C33.3333 29.6025 29.6024 33.3335 25 33.3335C20.3976 33.3335 16.6667 29.6025 16.6667 25.0002C16.6667 24.5399 16.2936 24.1668 15.8333 24.1668C15.3731 24.1668 15 24.5399 15 25.0002C15 30.2424 19.0337 34.5425 24.1667 34.9659V39.1668C24.1667 39.6271 24.5398 40.0002 25 40.0002C25.4602 40.0002 25.8333 39.6271 25.8333 39.1668V34.9659C30.9663 34.5425 35 30.2424 35 25.0002Z" fill="white"/>
<defs>
<linearGradient id="paint0_linear_2805_1274" x1="25" y1="7.45058e-07" x2="25" y2="50" gradientUnits="userSpaceOnUse">
<stop stop-color="#006CEB"/>
<stop offset="1" stop-color="#00EBFA"/>
</linearGradient>
</defs>
</svg>
