<svg width="50" height="50" viewBox="0 0 50 50" fill="none" xmlns="http://www.w3.org/2000/svg">
<circle cx="25" cy="25" r="25" fill="url(#paint0_linear_2722_78)"/>
<path fill-rule="evenodd" clip-rule="evenodd" d="M19.1667 8.33337C17.3257 8.33337 15.8333 9.82576 15.8333 11.6667V38.3334C15.8333 40.1743 17.3257 41.6667 19.1667 41.6667H30.8333C32.6743 41.6667 34.1667 40.1743 34.1667 38.3334V11.6667C34.1667 9.82576 32.6743 8.33337 30.8333 8.33337H29.1667V9.16671C29.1667 10.0872 28.4205 10.8334 27.5 10.8334H22.5C21.5795 10.8334 20.8333 10.0872 20.8333 9.16671V8.33337H19.1667ZM21.6667 38.3334C21.2064 38.3334 20.8333 38.7065 20.8333 39.1667C20.8333 39.6269 21.2064 40 21.6667 40H28.3333C28.7936 40 29.1667 39.6269 29.1667 39.1667C29.1667 38.7065 28.7936 38.3334 28.3333 38.3334H21.6667ZM29.1667 20.8334C29.4922 21.1589 29.4922 21.6865 29.1667 22.0119L23.9227 27.256C23.5972 27.5815 23.0696 27.5815 22.7441 27.256L20.8334 25.3453C20.508 25.0198 20.508 24.4922 20.8334 24.1668C21.1588 23.8413 21.6865 23.8413 22.0119 24.1668L23.3334 25.4883L27.9882 20.8334C28.3137 20.508 28.8413 20.508 29.1667 20.8334Z" fill="white"/>
<defs>
<linearGradient id="paint0_linear_2722_78" x1="25" y1="7.45058e-07" x2="25" y2="50" gradientUnits="userSpaceOnUse">
<stop stop-color="#BB46D8"/>
<stop offset="1" stop-color="#FFCFE0"/>
</linearGradient>
</defs>
</svg>
