<svg width="50" height="50" viewBox="0 0 50 50" fill="none" xmlns="http://www.w3.org/2000/svg">
<circle cx="25" cy="25" r="25" fill="url(#paint0_linear_2722_77)"/>
<path d="M25.8421 18.6333C25.8421 21.5603 23.4692 23.9332 20.5422 23.9332C17.6151 23.9332 15.2422 21.5603 15.2422 18.6333C15.2422 15.7062 17.6151 13.3334 20.5422 13.3334C23.4692 13.3334 25.8421 15.7062 25.8421 18.6333Z" fill="white"/>
<path d="M35.3819 21.8132C35.3819 24.1549 33.4836 26.0532 31.142 26.0532C28.8003 26.0532 26.9021 24.1549 26.9021 21.8132C26.9021 19.4716 28.8003 17.5733 31.142 17.5733C33.4836 17.5733 35.3819 19.4716 35.3819 21.8132Z" fill="white"/>
<path d="M39.0357 33.5404C38.1935 31.1209 36.1416 28.1731 31.142 28.1731C29.8726 28.1731 28.7932 28.3632 27.8753 28.6863C27.833 28.7013 27.791 28.7165 27.7493 28.7319C27.5027 28.8235 27.2681 28.9248 27.0449 29.0347C27.0425 29.0359 27.04 29.0371 27.0376 29.0383C26.5091 29.2991 26.0445 29.6079 25.6361 29.9494C24.3931 30.9886 23.6695 32.3303 23.2483 33.5404C23.1045 33.9534 23.0843 34.3538 23.1621 34.7222C23.2406 35.0934 23.4186 35.4322 23.6701 35.7187C23.8893 35.9684 24.1644 36.1785 24.478 36.3358C24.4899 36.3417 24.5018 36.3476 24.5138 36.3534C24.7108 36.4488 24.9226 36.5236 25.1449 36.5746C25.3681 36.6258 25.6019 36.653 25.8421 36.653H36.4419C38.1982 36.653 39.6129 35.1991 39.0357 33.5404Z" fill="white"/>
<path d="M24.6162 28.7296C25.1534 28.2805 25.7595 27.8856 26.4398 27.561C24.9765 26.6502 23.0579 26.0532 20.5422 26.0532C15.1193 26.0532 12.4708 28.8275 11.1772 31.5374C9.91634 34.179 12.3152 36.653 15.2422 36.653H22.3784C21.5978 35.6928 21.2749 34.3733 21.7467 33.0178C22.2297 31.6301 23.0869 30.0082 24.6162 28.7296Z" fill="white"/>
<defs>
<linearGradient id="paint0_linear_2722_77" x1="25" y1="7.45058e-07" x2="25" y2="50" gradientUnits="userSpaceOnUse">
<stop stop-color="#19923B"/>
<stop offset="1" stop-color="#CDEF43"/>
</linearGradient>
</defs>
</svg>
