<svg width="50" height="50" viewBox="0 0 50 50" fill="none" xmlns="http://www.w3.org/2000/svg">
<circle cx="25" cy="25" r="25" fill="url(#paint0_linear_2722_79)"/>
<path d="M31.6667 14.1666C30.7462 14.1666 30 14.9128 30 15.8333V33.3333C30 34.2538 30.7462 35 31.6667 35H35C35.9205 35 36.6667 34.2538 36.6667 33.3333V15.8333C36.6667 14.9128 35.9205 14.1666 35 14.1666H31.6667Z" fill="white"/>
<path d="M20.8333 24.1666C20.8333 23.2462 21.5795 22.5 22.5 22.5H25.8333C26.7538 22.5 27.5 23.2462 27.5 24.1666V33.3333C27.5 34.2538 26.7538 35 25.8333 35H22.5C21.5795 35 20.8333 34.2538 20.8333 33.3333V24.1666Z" fill="white"/>
<path d="M11.6667 28.3333C11.6667 27.4128 12.4129 26.6666 13.3333 26.6666H16.6667C17.5871 26.6666 18.3333 27.4128 18.3333 28.3333V33.3333C18.3333 34.2538 17.5871 35 16.6667 35H13.3333C12.4129 35 11.6667 34.2538 11.6667 33.3333V28.3333Z" fill="white"/>
<defs>
<linearGradient id="paint0_linear_2722_79" x1="25" y1="7.45058e-07" x2="25" y2="50" gradientUnits="userSpaceOnUse">
<stop stop-color="#FF2E92"/>
<stop offset="1" stop-color="#F1DA5E"/>
</linearGradient>
</defs>
</svg>
