<svg width="50" height="50" viewBox="0 0 50 50" fill="none" xmlns="http://www.w3.org/2000/svg">
<circle cx="25" cy="25" r="25" fill="url(#paint0_linear_2722_59)"/>
<path fill-rule="evenodd" clip-rule="evenodd" d="M14.4405 12.199C14.168 12.7338 14.168 13.4339 14.168 14.834V35.1673C14.168 36.5675 14.168 37.2675 14.4405 37.8023C14.6801 38.2727 15.0626 38.6552 15.533 38.8948C16.0678 39.1673 16.7678 39.1673 18.168 39.1673H31.8346C33.2348 39.1673 33.9348 39.1673 34.4696 38.8948C34.94 38.6552 35.3225 38.2727 35.5621 37.8023C35.8346 37.2675 35.8346 36.5675 35.8346 35.1673V14.834C35.8346 13.4339 35.8346 12.7338 35.5621 12.199C35.3225 11.7286 34.94 11.3462 34.4696 11.1065C33.9348 10.834 33.2348 10.834 31.8346 10.834H18.168C16.7678 10.834 16.0678 10.834 15.533 11.1065C15.0626 11.3462 14.6801 11.7286 14.4405 12.199ZM19.168 17.5007C18.7077 17.5007 18.3346 17.8737 18.3346 18.334C18.3346 18.7942 18.7077 19.1673 19.168 19.1673H30.8346C31.2949 19.1673 31.668 18.7942 31.668 18.334C31.668 17.8737 31.2949 17.5007 30.8346 17.5007H19.168ZM18.3346 21.6673C18.3346 21.2071 18.7077 20.834 19.168 20.834H30.8346C31.2949 20.834 31.668 21.2071 31.668 21.6673C31.668 22.1276 31.2949 22.5007 30.8346 22.5007H19.168C18.7077 22.5007 18.3346 22.1276 18.3346 21.6673ZM19.168 24.1673C18.7077 24.1673 18.3346 24.5404 18.3346 25.0007C18.3346 25.4609 18.7077 25.834 19.168 25.834H27.5013C27.9615 25.834 28.3346 25.4609 28.3346 25.0007C28.3346 24.5404 27.9615 24.1673 27.5013 24.1673H19.168Z" fill="white"/>
<defs>
<linearGradient id="paint0_linear_2722_59" x1="25" y1="0" x2="25" y2="50" gradientUnits="userSpaceOnUse">
<stop stop-color="#FF5F2D"/>
<stop offset="1" stop-color="#FFE248"/>
</linearGradient>
</defs>
</svg>
